<mxfile host="65bd71144e">
    <diagram id="7qIhkRodKBizntht7scX" name="Page-1">
        <mxGraphModel dx="2800" dy="1734" grid="1" gridSize="10" guides="1" tooltips="1" connect="1" arrows="1" fold="1" page="1" pageScale="1" pageWidth="1100" pageHeight="850" math="0" shadow="0">
            <root>
                <mxCell id="0"/>
                <mxCell id="1" parent="0"/>
                <mxCell id="4" style="edgeStyle=none;html=1;entryX=0.1;entryY=0.5;entryDx=0;entryDy=0;entryPerimeter=0;" parent="1" source="2" target="144" edge="1">
                    <mxGeometry relative="1" as="geometry">
                        <mxPoint x="1290" y="160" as="targetPoint"/>
                    </mxGeometry>
                </mxCell>
                <mxCell id="5" style="edgeStyle=none;html=1;entryX=0.1;entryY=0.5;entryDx=0;entryDy=0;entryPerimeter=0;" parent="1" source="2" target="107" edge="1">
                    <mxGeometry relative="1" as="geometry">
                        <mxPoint x="1290" y="380" as="targetPoint"/>
                    </mxGeometry>
                </mxCell>
                <mxCell id="7" style="edgeStyle=none;html=1;entryX=0.1;entryY=0.5;entryDx=0;entryDy=0;entryPerimeter=0;" parent="1" source="2" target="38" edge="1">
                    <mxGeometry relative="1" as="geometry">
                        <mxPoint x="830" y="380" as="targetPoint"/>
                    </mxGeometry>
                </mxCell>
                <mxCell id="15" style="edgeStyle=none;html=1;" parent="1" source="2" edge="1">
                    <mxGeometry relative="1" as="geometry">
                        <mxPoint x="830" y="160" as="targetPoint"/>
                    </mxGeometry>
                </mxCell>
                <mxCell id="2" value="&lt;b&gt;Sistema de Portal Universitário&lt;/b&gt;" style="rounded=1;whiteSpace=wrap;html=1;fillColor=#dae8fc;strokeColor=#6c8ebf;" parent="1" vertex="1">
                    <mxGeometry x="970" y="320" width="190" height="60" as="geometry"/>
                </mxCell>
                <mxCell id="20" value="Actor" style="shape=umlActor;verticalLabelPosition=bottom;verticalAlign=top;html=1;" parent="1" vertex="1">
                    <mxGeometry x="870" y="120" width="20" height="40" as="geometry"/>
                </mxCell>
                <mxCell id="24" value="" style="shape=curlyBracket;whiteSpace=wrap;html=1;rounded=1;flipH=1;labelPosition=right;verticalLabelPosition=middle;align=left;verticalAlign=middle;size=0.5;" parent="1" vertex="1">
                    <mxGeometry x="810" y="125" width="20" height="70" as="geometry"/>
                </mxCell>
                <mxCell id="26" value="" style="shape=table;startSize=0;container=1;collapsible=0;childLayout=tableLayout;fontSize=11;fillColor=none;strokeColor=none;" parent="1" vertex="1">
                    <mxGeometry x="730" y="130" width="90" height="80" as="geometry"/>
                </mxCell>
                <mxCell id="27" value="" style="shape=tableRow;horizontal=0;startSize=0;swimlaneHead=0;swimlaneBody=0;strokeColor=inherit;top=0;left=0;bottom=0;right=0;collapsible=0;dropTarget=0;fillColor=none;points=[[0,0.5],[1,0.5]];portConstraint=eastwest;fontSize=16;" parent="26" vertex="1">
                    <mxGeometry width="90" height="20" as="geometry"/>
                </mxCell>
                <mxCell id="28" value="Alunos" style="shape=partialRectangle;html=1;whiteSpace=wrap;connectable=0;strokeColor=inherit;overflow=hidden;fillColor=none;top=0;left=0;bottom=0;right=0;pointerEvents=1;fontSize=12;align=left;spacingLeft=5;" parent="27" vertex="1">
                    <mxGeometry width="90" height="20" as="geometry">
                        <mxRectangle width="90" height="20" as="alternateBounds"/>
                    </mxGeometry>
                </mxCell>
                <mxCell id="29" value="" style="shape=tableRow;horizontal=0;startSize=0;swimlaneHead=0;swimlaneBody=0;strokeColor=inherit;top=0;left=0;bottom=0;right=0;collapsible=0;dropTarget=0;fillColor=none;points=[[0,0.5],[1,0.5]];portConstraint=eastwest;fontSize=16;" parent="26" vertex="1">
                    <mxGeometry y="20" width="90" height="20" as="geometry"/>
                </mxCell>
                <mxCell id="30" value="Professores" style="shape=partialRectangle;html=1;whiteSpace=wrap;connectable=0;strokeColor=inherit;overflow=hidden;fillColor=none;top=0;left=0;bottom=0;right=0;pointerEvents=1;fontSize=12;align=left;spacingLeft=5;" parent="29" vertex="1">
                    <mxGeometry width="90" height="20" as="geometry">
                        <mxRectangle width="90" height="20" as="alternateBounds"/>
                    </mxGeometry>
                </mxCell>
                <mxCell id="31" value="" style="shape=tableRow;horizontal=0;startSize=0;swimlaneHead=0;swimlaneBody=0;strokeColor=inherit;top=0;left=0;bottom=0;right=0;collapsible=0;dropTarget=0;fillColor=none;points=[[0,0.5],[1,0.5]];portConstraint=eastwest;fontSize=16;" parent="26" vertex="1">
                    <mxGeometry y="40" width="90" height="20" as="geometry"/>
                </mxCell>
                <mxCell id="32" value="Administrativo" style="shape=partialRectangle;html=1;whiteSpace=wrap;connectable=0;strokeColor=inherit;overflow=hidden;fillColor=none;top=0;left=0;bottom=0;right=0;pointerEvents=1;fontSize=12;align=left;spacingLeft=5;" parent="31" vertex="1">
                    <mxGeometry width="90" height="20" as="geometry">
                        <mxRectangle width="90" height="20" as="alternateBounds"/>
                    </mxGeometry>
                </mxCell>
                <mxCell id="33" style="shape=tableRow;horizontal=0;startSize=0;swimlaneHead=0;swimlaneBody=0;strokeColor=inherit;top=0;left=0;bottom=0;right=0;collapsible=0;dropTarget=0;fillColor=none;points=[[0,0.5],[1,0.5]];portConstraint=eastwest;fontSize=16;" parent="26" vertex="1">
                    <mxGeometry y="60" width="90" height="20" as="geometry"/>
                </mxCell>
                <mxCell id="34" value="" style="shape=partialRectangle;html=1;whiteSpace=wrap;connectable=0;strokeColor=inherit;overflow=hidden;fillColor=none;top=0;left=0;bottom=0;right=0;pointerEvents=1;fontSize=12;align=left;spacingLeft=5;" parent="33" vertex="1">
                    <mxGeometry width="90" height="20" as="geometry">
                        <mxRectangle width="90" height="20" as="alternateBounds"/>
                    </mxGeometry>
                </mxCell>
                <mxCell id="35" value="Casos de uso" style="text;strokeColor=none;fillColor=none;html=1;fontSize=12;fontStyle=0;verticalAlign=middle;align=center;" parent="1" vertex="1">
                    <mxGeometry x="840" y="500" width="100" height="40" as="geometry"/>
                </mxCell>
                <mxCell id="36" value="Requisitos não funcionais" style="text;strokeColor=none;fillColor=none;html=1;fontSize=12;fontStyle=0;verticalAlign=middle;align=center;" parent="1" vertex="1">
                    <mxGeometry x="1090" y="140" width="200" height="40" as="geometry"/>
                </mxCell>
                <mxCell id="37" value="Requisitos funcionais" style="text;strokeColor=none;fillColor=none;html=1;fontSize=12;fontStyle=0;verticalAlign=middle;align=center;" parent="1" vertex="1">
                    <mxGeometry x="1150" y="500" width="180" height="40" as="geometry"/>
                </mxCell>
                <mxCell id="38" value="" style="shape=curlyBracket;whiteSpace=wrap;html=1;rounded=1;flipH=1;labelPosition=right;verticalLabelPosition=middle;align=left;verticalAlign=middle;size=0.5;" parent="1" vertex="1">
                    <mxGeometry x="810" y="305" width="20" height="445" as="geometry"/>
                </mxCell>
                <mxCell id="41" value="Gerenciamento dos alunos" style="text;strokeColor=none;fillColor=none;html=1;fontSize=12;fontStyle=0;verticalAlign=middle;align=center;" parent="1" vertex="1">
                    <mxGeometry x="650" y="285" width="150" height="40" as="geometry"/>
                </mxCell>
                <mxCell id="42" value="Gerenciamento dos professores" style="text;strokeColor=none;fillColor=none;html=1;fontSize=12;fontStyle=0;verticalAlign=middle;align=center;" parent="1" vertex="1">
                    <mxGeometry x="640" y="440" width="170" height="40" as="geometry"/>
                </mxCell>
                <mxCell id="43" value="Gerenciamento das disciplinas" style="text;strokeColor=none;fillColor=none;html=1;fontSize=12;fontStyle=0;verticalAlign=middle;align=center;" parent="1" vertex="1">
                    <mxGeometry x="640" y="590" width="170" height="40" as="geometry"/>
                </mxCell>
                <mxCell id="44" value="Gerenciamento das turmas" style="text;strokeColor=none;fillColor=none;html=1;fontSize=12;fontStyle=0;verticalAlign=middle;align=center;" parent="1" vertex="1">
                    <mxGeometry x="640" y="730" width="170" height="40" as="geometry"/>
                </mxCell>
                <mxCell id="45" value="" style="shape=curlyBracket;whiteSpace=wrap;html=1;rounded=1;flipH=1;labelPosition=right;verticalLabelPosition=middle;align=left;verticalAlign=middle;" parent="1" vertex="1">
                    <mxGeometry x="620" y="245" width="20" height="120" as="geometry"/>
                </mxCell>
                <mxCell id="46" value="" style="shape=curlyBracket;whiteSpace=wrap;html=1;rounded=1;flipH=1;labelPosition=right;verticalLabelPosition=middle;align=left;verticalAlign=middle;" parent="1" vertex="1">
                    <mxGeometry x="620" y="400" width="20" height="120" as="geometry"/>
                </mxCell>
                <mxCell id="47" value="" style="shape=curlyBracket;whiteSpace=wrap;html=1;rounded=1;flipH=1;labelPosition=right;verticalLabelPosition=middle;align=left;verticalAlign=middle;" parent="1" vertex="1">
                    <mxGeometry x="620" y="550" width="20" height="120" as="geometry"/>
                </mxCell>
                <mxCell id="48" value="" style="shape=curlyBracket;whiteSpace=wrap;html=1;rounded=1;flipH=1;labelPosition=right;verticalLabelPosition=middle;align=left;verticalAlign=middle;size=0.5;" parent="1" vertex="1">
                    <mxGeometry x="620" y="690" width="20" height="120" as="geometry"/>
                </mxCell>
                <mxCell id="49" value="" style="shape=table;startSize=0;container=1;collapsible=0;childLayout=tableLayout;fontSize=11;fillColor=none;strokeColor=none;" parent="1" vertex="1">
                    <mxGeometry x="390" y="265" width="230" height="80" as="geometry"/>
                </mxCell>
                <mxCell id="50" value="" style="shape=tableRow;horizontal=0;startSize=0;swimlaneHead=0;swimlaneBody=0;strokeColor=inherit;top=0;left=0;bottom=0;right=0;collapsible=0;dropTarget=0;fillColor=none;points=[[0,0.5],[1,0.5]];portConstraint=eastwest;fontSize=16;" parent="49" vertex="1">
                    <mxGeometry width="230" height="20" as="geometry"/>
                </mxCell>
                <mxCell id="51" value="Registrar aluno" style="shape=partialRectangle;html=1;whiteSpace=wrap;connectable=0;strokeColor=inherit;overflow=hidden;fillColor=none;top=0;left=0;bottom=0;right=0;pointerEvents=1;fontSize=12;align=left;spacingLeft=5;" parent="50" vertex="1">
                    <mxGeometry width="230" height="20" as="geometry">
                        <mxRectangle width="230" height="20" as="alternateBounds"/>
                    </mxGeometry>
                </mxCell>
                <mxCell id="52" value="" style="shape=tableRow;horizontal=0;startSize=0;swimlaneHead=0;swimlaneBody=0;strokeColor=inherit;top=0;left=0;bottom=0;right=0;collapsible=0;dropTarget=0;fillColor=none;points=[[0,0.5],[1,0.5]];portConstraint=eastwest;fontSize=16;" parent="49" vertex="1">
                    <mxGeometry y="20" width="230" height="20" as="geometry"/>
                </mxCell>
                <mxCell id="53" value="Atualizar dados do aluno" style="shape=partialRectangle;html=1;whiteSpace=wrap;connectable=0;strokeColor=inherit;overflow=hidden;fillColor=none;top=0;left=0;bottom=0;right=0;pointerEvents=1;fontSize=12;align=left;spacingLeft=5;" parent="52" vertex="1">
                    <mxGeometry width="230" height="20" as="geometry">
                        <mxRectangle width="230" height="20" as="alternateBounds"/>
                    </mxGeometry>
                </mxCell>
                <mxCell id="54" value="" style="shape=tableRow;horizontal=0;startSize=0;swimlaneHead=0;swimlaneBody=0;strokeColor=inherit;top=0;left=0;bottom=0;right=0;collapsible=0;dropTarget=0;fillColor=none;points=[[0,0.5],[1,0.5]];portConstraint=eastwest;fontSize=16;" parent="49" vertex="1">
                    <mxGeometry y="40" width="230" height="20" as="geometry"/>
                </mxCell>
                <mxCell id="55" value="Remover aluno" style="shape=partialRectangle;html=1;whiteSpace=wrap;connectable=0;strokeColor=inherit;overflow=hidden;fillColor=none;top=0;left=0;bottom=0;right=0;pointerEvents=1;fontSize=12;align=left;spacingLeft=5;" parent="54" vertex="1">
                    <mxGeometry width="230" height="20" as="geometry">
                        <mxRectangle width="230" height="20" as="alternateBounds"/>
                    </mxGeometry>
                </mxCell>
                <mxCell id="56" style="shape=tableRow;horizontal=0;startSize=0;swimlaneHead=0;swimlaneBody=0;strokeColor=inherit;top=0;left=0;bottom=0;right=0;collapsible=0;dropTarget=0;fillColor=none;points=[[0,0.5],[1,0.5]];portConstraint=eastwest;fontSize=16;" parent="49" vertex="1">
                    <mxGeometry y="60" width="230" height="20" as="geometry"/>
                </mxCell>
                <mxCell id="57" value="Visualizar histórico e situação acadêmica" style="shape=partialRectangle;html=1;whiteSpace=wrap;connectable=0;strokeColor=inherit;overflow=hidden;fillColor=none;top=0;left=0;bottom=0;right=0;pointerEvents=1;fontSize=12;align=left;spacingLeft=5;" parent="56" vertex="1">
                    <mxGeometry width="230" height="20" as="geometry">
                        <mxRectangle width="230" height="20" as="alternateBounds"/>
                    </mxGeometry>
                </mxCell>
                <mxCell id="77" value="" style="shape=table;startSize=0;container=1;collapsible=0;childLayout=tableLayout;fontSize=11;fillColor=none;strokeColor=none;" parent="1" vertex="1">
                    <mxGeometry x="390" y="400" width="200" height="80" as="geometry"/>
                </mxCell>
                <mxCell id="78" value="" style="shape=tableRow;horizontal=0;startSize=0;swimlaneHead=0;swimlaneBody=0;strokeColor=inherit;top=0;left=0;bottom=0;right=0;collapsible=0;dropTarget=0;fillColor=none;points=[[0,0.5],[1,0.5]];portConstraint=eastwest;fontSize=16;" parent="77" vertex="1">
                    <mxGeometry width="200" height="20" as="geometry"/>
                </mxCell>
                <mxCell id="79" value="Cadastrar professore" style="shape=partialRectangle;html=1;whiteSpace=wrap;connectable=0;strokeColor=inherit;overflow=hidden;fillColor=none;top=0;left=0;bottom=0;right=0;pointerEvents=1;fontSize=12;align=left;spacingLeft=5;" parent="78" vertex="1">
                    <mxGeometry width="200" height="20" as="geometry">
                        <mxRectangle width="200" height="20" as="alternateBounds"/>
                    </mxGeometry>
                </mxCell>
                <mxCell id="80" value="" style="shape=tableRow;horizontal=0;startSize=0;swimlaneHead=0;swimlaneBody=0;strokeColor=inherit;top=0;left=0;bottom=0;right=0;collapsible=0;dropTarget=0;fillColor=none;points=[[0,0.5],[1,0.5]];portConstraint=eastwest;fontSize=16;" parent="77" vertex="1">
                    <mxGeometry y="20" width="200" height="20" as="geometry"/>
                </mxCell>
                <mxCell id="81" value="Atualizar dados do professor" style="shape=partialRectangle;html=1;whiteSpace=wrap;connectable=0;strokeColor=inherit;overflow=hidden;fillColor=none;top=0;left=0;bottom=0;right=0;pointerEvents=1;fontSize=12;align=left;spacingLeft=5;" parent="80" vertex="1">
                    <mxGeometry width="200" height="20" as="geometry">
                        <mxRectangle width="200" height="20" as="alternateBounds"/>
                    </mxGeometry>
                </mxCell>
                <mxCell id="82" value="" style="shape=tableRow;horizontal=0;startSize=0;swimlaneHead=0;swimlaneBody=0;strokeColor=inherit;top=0;left=0;bottom=0;right=0;collapsible=0;dropTarget=0;fillColor=none;points=[[0,0.5],[1,0.5]];portConstraint=eastwest;fontSize=16;" parent="77" vertex="1">
                    <mxGeometry y="40" width="200" height="20" as="geometry"/>
                </mxCell>
                <mxCell id="83" value="Remover professor" style="shape=partialRectangle;html=1;whiteSpace=wrap;connectable=0;strokeColor=inherit;overflow=hidden;fillColor=none;top=0;left=0;bottom=0;right=0;pointerEvents=1;fontSize=12;align=left;spacingLeft=5;" parent="82" vertex="1">
                    <mxGeometry width="200" height="20" as="geometry">
                        <mxRectangle width="200" height="20" as="alternateBounds"/>
                    </mxGeometry>
                </mxCell>
                <mxCell id="84" style="shape=tableRow;horizontal=0;startSize=0;swimlaneHead=0;swimlaneBody=0;strokeColor=inherit;top=0;left=0;bottom=0;right=0;collapsible=0;dropTarget=0;fillColor=none;points=[[0,0.5],[1,0.5]];portConstraint=eastwest;fontSize=16;" parent="77" vertex="1">
                    <mxGeometry y="60" width="200" height="20" as="geometry"/>
                </mxCell>
                <mxCell id="85" value="Associar disciplinas e turmas" style="shape=partialRectangle;html=1;whiteSpace=wrap;connectable=0;strokeColor=inherit;overflow=hidden;fillColor=none;top=0;left=0;bottom=0;right=0;pointerEvents=1;fontSize=12;align=left;spacingLeft=5;" parent="84" vertex="1">
                    <mxGeometry width="200" height="20" as="geometry">
                        <mxRectangle width="200" height="20" as="alternateBounds"/>
                    </mxGeometry>
                </mxCell>
                <mxCell id="86" value="" style="shape=table;startSize=0;container=1;collapsible=0;childLayout=tableLayout;fontSize=11;fillColor=none;strokeColor=none;" parent="1" vertex="1">
                    <mxGeometry x="390" y="570" width="230" height="80" as="geometry"/>
                </mxCell>
                <mxCell id="87" value="" style="shape=tableRow;horizontal=0;startSize=0;swimlaneHead=0;swimlaneBody=0;strokeColor=inherit;top=0;left=0;bottom=0;right=0;collapsible=0;dropTarget=0;fillColor=none;points=[[0,0.5],[1,0.5]];portConstraint=eastwest;fontSize=16;" parent="86" vertex="1">
                    <mxGeometry width="230" height="20" as="geometry"/>
                </mxCell>
                <mxCell id="88" value="Criar nova disciplina" style="shape=partialRectangle;html=1;whiteSpace=wrap;connectable=0;strokeColor=inherit;overflow=hidden;fillColor=none;top=0;left=0;bottom=0;right=0;pointerEvents=1;fontSize=12;align=left;spacingLeft=5;" parent="87" vertex="1">
                    <mxGeometry width="230" height="20" as="geometry">
                        <mxRectangle width="230" height="20" as="alternateBounds"/>
                    </mxGeometry>
                </mxCell>
                <mxCell id="89" value="" style="shape=tableRow;horizontal=0;startSize=0;swimlaneHead=0;swimlaneBody=0;strokeColor=inherit;top=0;left=0;bottom=0;right=0;collapsible=0;dropTarget=0;fillColor=none;points=[[0,0.5],[1,0.5]];portConstraint=eastwest;fontSize=16;" parent="86" vertex="1">
                    <mxGeometry y="20" width="230" height="20" as="geometry"/>
                </mxCell>
                <mxCell id="90" value="Editar informações" style="shape=partialRectangle;html=1;whiteSpace=wrap;connectable=0;strokeColor=inherit;overflow=hidden;fillColor=none;top=0;left=0;bottom=0;right=0;pointerEvents=1;fontSize=12;align=left;spacingLeft=5;" parent="89" vertex="1">
                    <mxGeometry width="230" height="20" as="geometry">
                        <mxRectangle width="230" height="20" as="alternateBounds"/>
                    </mxGeometry>
                </mxCell>
                <mxCell id="91" value="" style="shape=tableRow;horizontal=0;startSize=0;swimlaneHead=0;swimlaneBody=0;strokeColor=inherit;top=0;left=0;bottom=0;right=0;collapsible=0;dropTarget=0;fillColor=none;points=[[0,0.5],[1,0.5]];portConstraint=eastwest;fontSize=16;" parent="86" vertex="1">
                    <mxGeometry y="40" width="230" height="20" as="geometry"/>
                </mxCell>
                <mxCell id="92" value="&lt;span style=&quot;color: rgb(0, 0, 0);&quot;&gt;Associar&amp;nbsp;&lt;/span&gt;professor responsável" style="shape=partialRectangle;html=1;whiteSpace=wrap;connectable=0;strokeColor=inherit;overflow=hidden;fillColor=none;top=0;left=0;bottom=0;right=0;pointerEvents=1;fontSize=12;align=left;spacingLeft=5;" parent="91" vertex="1">
                    <mxGeometry width="230" height="20" as="geometry">
                        <mxRectangle width="230" height="20" as="alternateBounds"/>
                    </mxGeometry>
                </mxCell>
                <mxCell id="93" style="shape=tableRow;horizontal=0;startSize=0;swimlaneHead=0;swimlaneBody=0;strokeColor=inherit;top=0;left=0;bottom=0;right=0;collapsible=0;dropTarget=0;fillColor=none;points=[[0,0.5],[1,0.5]];portConstraint=eastwest;fontSize=16;" parent="86" vertex="1">
                    <mxGeometry y="60" width="230" height="20" as="geometry"/>
                </mxCell>
                <mxCell id="94" value="Associar um curso específico" style="shape=partialRectangle;html=1;whiteSpace=wrap;connectable=0;strokeColor=inherit;overflow=hidden;fillColor=none;top=0;left=0;bottom=0;right=0;pointerEvents=1;fontSize=12;align=left;spacingLeft=5;" parent="93" vertex="1">
                    <mxGeometry width="230" height="20" as="geometry">
                        <mxRectangle width="230" height="20" as="alternateBounds"/>
                    </mxGeometry>
                </mxCell>
                <mxCell id="95" value="" style="shape=table;startSize=0;container=1;collapsible=0;childLayout=tableLayout;fontSize=11;fillColor=none;strokeColor=none;" parent="1" vertex="1">
                    <mxGeometry x="390" y="710" width="200" height="80" as="geometry"/>
                </mxCell>
                <mxCell id="96" value="" style="shape=tableRow;horizontal=0;startSize=0;swimlaneHead=0;swimlaneBody=0;strokeColor=inherit;top=0;left=0;bottom=0;right=0;collapsible=0;dropTarget=0;fillColor=none;points=[[0,0.5],[1,0.5]];portConstraint=eastwest;fontSize=16;" parent="95" vertex="1">
                    <mxGeometry width="200" height="20" as="geometry"/>
                </mxCell>
                <mxCell id="97" value="Criar turma" style="shape=partialRectangle;html=1;whiteSpace=wrap;connectable=0;strokeColor=inherit;overflow=hidden;fillColor=none;top=0;left=0;bottom=0;right=0;pointerEvents=1;fontSize=12;align=left;spacingLeft=5;" parent="96" vertex="1">
                    <mxGeometry width="200" height="20" as="geometry">
                        <mxRectangle width="200" height="20" as="alternateBounds"/>
                    </mxGeometry>
                </mxCell>
                <mxCell id="98" value="" style="shape=tableRow;horizontal=0;startSize=0;swimlaneHead=0;swimlaneBody=0;strokeColor=inherit;top=0;left=0;bottom=0;right=0;collapsible=0;dropTarget=0;fillColor=none;points=[[0,0.5],[1,0.5]];portConstraint=eastwest;fontSize=16;" parent="95" vertex="1">
                    <mxGeometry y="20" width="200" height="20" as="geometry"/>
                </mxCell>
                <mxCell id="99" value="Definir turno" style="shape=partialRectangle;html=1;whiteSpace=wrap;connectable=0;strokeColor=inherit;overflow=hidden;fillColor=none;top=0;left=0;bottom=0;right=0;pointerEvents=1;fontSize=12;align=left;spacingLeft=5;" parent="98" vertex="1">
                    <mxGeometry width="200" height="20" as="geometry">
                        <mxRectangle width="200" height="20" as="alternateBounds"/>
                    </mxGeometry>
                </mxCell>
                <mxCell id="100" value="" style="shape=tableRow;horizontal=0;startSize=0;swimlaneHead=0;swimlaneBody=0;strokeColor=inherit;top=0;left=0;bottom=0;right=0;collapsible=0;dropTarget=0;fillColor=none;points=[[0,0.5],[1,0.5]];portConstraint=eastwest;fontSize=16;" parent="95" vertex="1">
                    <mxGeometry y="40" width="200" height="20" as="geometry"/>
                </mxCell>
                <mxCell id="101" value="Associar alunos e professores" style="shape=partialRectangle;html=1;whiteSpace=wrap;connectable=0;strokeColor=inherit;overflow=hidden;fillColor=none;top=0;left=0;bottom=0;right=0;pointerEvents=1;fontSize=12;align=left;spacingLeft=5;" parent="100" vertex="1">
                    <mxGeometry width="200" height="20" as="geometry">
                        <mxRectangle width="200" height="20" as="alternateBounds"/>
                    </mxGeometry>
                </mxCell>
                <mxCell id="102" style="shape=tableRow;horizontal=0;startSize=0;swimlaneHead=0;swimlaneBody=0;strokeColor=inherit;top=0;left=0;bottom=0;right=0;collapsible=0;dropTarget=0;fillColor=none;points=[[0,0.5],[1,0.5]];portConstraint=eastwest;fontSize=16;" parent="95" vertex="1">
                    <mxGeometry y="60" width="200" height="20" as="geometry"/>
                </mxCell>
                <mxCell id="103" value="" style="shape=partialRectangle;html=1;whiteSpace=wrap;connectable=0;strokeColor=inherit;overflow=hidden;fillColor=none;top=0;left=0;bottom=0;right=0;pointerEvents=1;fontSize=12;align=left;spacingLeft=5;" parent="102" vertex="1">
                    <mxGeometry width="200" height="20" as="geometry">
                        <mxRectangle width="200" height="20" as="alternateBounds"/>
                    </mxGeometry>
                </mxCell>
                <mxCell id="105" value="Registrar notas" style="shape=partialRectangle;html=1;whiteSpace=wrap;connectable=0;strokeColor=inherit;overflow=hidden;fillColor=none;top=0;left=0;bottom=0;right=0;pointerEvents=1;fontSize=12;align=left;spacingLeft=5;" parent="1" vertex="1">
                    <mxGeometry x="390" y="480" width="200" height="20" as="geometry">
                        <mxRectangle width="200" height="20" as="alternateBounds"/>
                    </mxGeometry>
                </mxCell>
                <mxCell id="106" value="Marcar presença de alunos" style="shape=partialRectangle;html=1;whiteSpace=wrap;connectable=0;strokeColor=inherit;overflow=hidden;fillColor=none;top=0;left=0;bottom=0;right=0;pointerEvents=1;fontSize=12;align=left;spacingLeft=5;" parent="1" vertex="1">
                    <mxGeometry x="390" y="500" width="200" height="20" as="geometry">
                        <mxRectangle width="200" height="20" as="alternateBounds"/>
                    </mxGeometry>
                </mxCell>
                <mxCell id="107" value="" style="shape=curlyBracket;whiteSpace=wrap;html=1;rounded=1;labelPosition=left;verticalLabelPosition=middle;align=right;verticalAlign=middle;size=0.5;" parent="1" vertex="1">
                    <mxGeometry x="1320" y="462.5" width="20" height="130" as="geometry"/>
                </mxCell>
                <mxCell id="117" value="" style="shape=table;startSize=0;container=1;collapsible=0;childLayout=tableLayout;fontSize=11;fillColor=none;strokeColor=none;" parent="1" vertex="1">
                    <mxGeometry x="1340" y="470" width="360" height="80" as="geometry"/>
                </mxCell>
                <mxCell id="118" value="" style="shape=tableRow;horizontal=0;startSize=0;swimlaneHead=0;swimlaneBody=0;strokeColor=inherit;top=0;left=0;bottom=0;right=0;collapsible=0;dropTarget=0;fillColor=none;points=[[0,0.5],[1,0.5]];portConstraint=eastwest;fontSize=16;" parent="117" vertex="1">
                    <mxGeometry width="360" height="20" as="geometry"/>
                </mxCell>
                <mxCell id="119" value="Cadastro de usuários (alunos e professores)" style="shape=partialRectangle;html=1;whiteSpace=wrap;connectable=0;strokeColor=inherit;overflow=hidden;fillColor=none;top=0;left=0;bottom=0;right=0;pointerEvents=1;fontSize=12;align=left;spacingLeft=5;" parent="118" vertex="1">
                    <mxGeometry width="360" height="20" as="geometry">
                        <mxRectangle width="360" height="20" as="alternateBounds"/>
                    </mxGeometry>
                </mxCell>
                <mxCell id="120" value="" style="shape=tableRow;horizontal=0;startSize=0;swimlaneHead=0;swimlaneBody=0;strokeColor=inherit;top=0;left=0;bottom=0;right=0;collapsible=0;dropTarget=0;fillColor=none;points=[[0,0.5],[1,0.5]];portConstraint=eastwest;fontSize=16;" parent="117" vertex="1">
                    <mxGeometry y="20" width="360" height="20" as="geometry"/>
                </mxCell>
                <mxCell id="121" value="Autenticação e autorização (login, permissão de acesso" style="shape=partialRectangle;html=1;whiteSpace=wrap;connectable=0;strokeColor=inherit;overflow=hidden;fillColor=none;top=0;left=0;bottom=0;right=0;pointerEvents=1;fontSize=12;align=left;spacingLeft=5;" parent="120" vertex="1">
                    <mxGeometry width="360" height="20" as="geometry">
                        <mxRectangle width="360" height="20" as="alternateBounds"/>
                    </mxGeometry>
                </mxCell>
                <mxCell id="122" value="" style="shape=tableRow;horizontal=0;startSize=0;swimlaneHead=0;swimlaneBody=0;strokeColor=inherit;top=0;left=0;bottom=0;right=0;collapsible=0;dropTarget=0;fillColor=none;points=[[0,0.5],[1,0.5]];portConstraint=eastwest;fontSize=16;" parent="117" vertex="1">
                    <mxGeometry y="40" width="360" height="20" as="geometry"/>
                </mxCell>
                <mxCell id="123" value="Gestão de disciplinas e turmas" style="shape=partialRectangle;html=1;whiteSpace=wrap;connectable=0;strokeColor=inherit;overflow=hidden;fillColor=none;top=0;left=0;bottom=0;right=0;pointerEvents=1;fontSize=12;align=left;spacingLeft=5;" parent="122" vertex="1">
                    <mxGeometry width="360" height="20" as="geometry">
                        <mxRectangle width="360" height="20" as="alternateBounds"/>
                    </mxGeometry>
                </mxCell>
                <mxCell id="124" style="shape=tableRow;horizontal=0;startSize=0;swimlaneHead=0;swimlaneBody=0;strokeColor=inherit;top=0;left=0;bottom=0;right=0;collapsible=0;dropTarget=0;fillColor=none;points=[[0,0.5],[1,0.5]];portConstraint=eastwest;fontSize=16;" parent="117" vertex="1">
                    <mxGeometry y="60" width="360" height="20" as="geometry"/>
                </mxCell>
                <mxCell id="125" value="Lançamento de notas e frequência" style="shape=partialRectangle;html=1;whiteSpace=wrap;connectable=0;strokeColor=inherit;overflow=hidden;fillColor=none;top=0;left=0;bottom=0;right=0;pointerEvents=1;fontSize=12;align=left;spacingLeft=5;" parent="124" vertex="1">
                    <mxGeometry width="360" height="20" as="geometry">
                        <mxRectangle width="360" height="20" as="alternateBounds"/>
                    </mxGeometry>
                </mxCell>
                <mxCell id="135" value="" style="shape=table;startSize=0;container=1;collapsible=0;childLayout=tableLayout;fontSize=11;fillColor=none;strokeColor=none;" parent="1" vertex="1">
                    <mxGeometry x="1340" y="550" width="360" height="80" as="geometry"/>
                </mxCell>
                <mxCell id="136" value="" style="shape=tableRow;horizontal=0;startSize=0;swimlaneHead=0;swimlaneBody=0;strokeColor=inherit;top=0;left=0;bottom=0;right=0;collapsible=0;dropTarget=0;fillColor=none;points=[[0,0.5],[1,0.5]];portConstraint=eastwest;fontSize=16;" parent="135" vertex="1">
                    <mxGeometry width="360" height="20" as="geometry"/>
                </mxCell>
                <mxCell id="137" value="Matrícula e rematrícula" style="shape=partialRectangle;html=1;whiteSpace=wrap;connectable=0;strokeColor=inherit;overflow=hidden;fillColor=none;top=0;left=0;bottom=0;right=0;pointerEvents=1;fontSize=12;align=left;spacingLeft=5;" parent="136" vertex="1">
                    <mxGeometry width="360" height="20" as="geometry">
                        <mxRectangle width="360" height="20" as="alternateBounds"/>
                    </mxGeometry>
                </mxCell>
                <mxCell id="138" value="" style="shape=tableRow;horizontal=0;startSize=0;swimlaneHead=0;swimlaneBody=0;strokeColor=inherit;top=0;left=0;bottom=0;right=0;collapsible=0;dropTarget=0;fillColor=none;points=[[0,0.5],[1,0.5]];portConstraint=eastwest;fontSize=16;" parent="135" vertex="1">
                    <mxGeometry y="20" width="360" height="20" as="geometry"/>
                </mxCell>
                <mxCell id="139" value="Comunicação interna (avisos, calendário acadêmico)" style="shape=partialRectangle;html=1;whiteSpace=wrap;connectable=0;strokeColor=inherit;overflow=hidden;fillColor=none;top=0;left=0;bottom=0;right=0;pointerEvents=1;fontSize=12;align=left;spacingLeft=5;" parent="138" vertex="1">
                    <mxGeometry width="360" height="20" as="geometry">
                        <mxRectangle width="360" height="20" as="alternateBounds"/>
                    </mxGeometry>
                </mxCell>
                <mxCell id="140" value="" style="shape=tableRow;horizontal=0;startSize=0;swimlaneHead=0;swimlaneBody=0;strokeColor=inherit;top=0;left=0;bottom=0;right=0;collapsible=0;dropTarget=0;fillColor=none;points=[[0,0.5],[1,0.5]];portConstraint=eastwest;fontSize=16;" parent="135" vertex="1">
                    <mxGeometry y="40" width="360" height="20" as="geometry"/>
                </mxCell>
                <mxCell id="141" value="" style="shape=partialRectangle;html=1;whiteSpace=wrap;connectable=0;strokeColor=inherit;overflow=hidden;fillColor=none;top=0;left=0;bottom=0;right=0;pointerEvents=1;fontSize=12;align=left;spacingLeft=5;" parent="140" vertex="1">
                    <mxGeometry width="360" height="20" as="geometry">
                        <mxRectangle width="360" height="20" as="alternateBounds"/>
                    </mxGeometry>
                </mxCell>
                <mxCell id="142" style="shape=tableRow;horizontal=0;startSize=0;swimlaneHead=0;swimlaneBody=0;strokeColor=inherit;top=0;left=0;bottom=0;right=0;collapsible=0;dropTarget=0;fillColor=none;points=[[0,0.5],[1,0.5]];portConstraint=eastwest;fontSize=16;" parent="135" vertex="1">
                    <mxGeometry y="60" width="360" height="20" as="geometry"/>
                </mxCell>
                <mxCell id="143" value="" style="shape=partialRectangle;html=1;whiteSpace=wrap;connectable=0;strokeColor=inherit;overflow=hidden;fillColor=none;top=0;left=0;bottom=0;right=0;pointerEvents=1;fontSize=12;align=left;spacingLeft=5;" parent="142" vertex="1">
                    <mxGeometry width="360" height="20" as="geometry">
                        <mxRectangle width="360" height="20" as="alternateBounds"/>
                    </mxGeometry>
                </mxCell>
                <mxCell id="144" value="" style="shape=curlyBracket;whiteSpace=wrap;html=1;rounded=1;labelPosition=left;verticalLabelPosition=middle;align=right;verticalAlign=middle;" parent="1" vertex="1">
                    <mxGeometry x="1300" y="80" width="20" height="140" as="geometry"/>
                </mxCell>
                <mxCell id="163" value="" style="shape=table;startSize=0;container=1;collapsible=0;childLayout=tableLayout;fontSize=11;fillColor=none;strokeColor=none;" parent="1" vertex="1">
                    <mxGeometry x="1330" y="160" width="100" height="70" as="geometry"/>
                </mxCell>
                <mxCell id="164" value="" style="shape=tableRow;horizontal=0;startSize=0;swimlaneHead=0;swimlaneBody=0;strokeColor=inherit;top=0;left=0;bottom=0;right=0;collapsible=0;dropTarget=0;fillColor=none;points=[[0,0.5],[1,0.5]];portConstraint=eastwest;fontSize=16;" parent="163" vertex="1">
                    <mxGeometry width="100" height="20" as="geometry"/>
                </mxCell>
                <mxCell id="165" value="Disponibilidade" style="shape=partialRectangle;html=1;whiteSpace=wrap;connectable=0;strokeColor=inherit;overflow=hidden;fillColor=none;top=0;left=0;bottom=0;right=0;pointerEvents=1;fontSize=12;align=left;spacingLeft=5;" parent="164" vertex="1">
                    <mxGeometry width="100" height="20" as="geometry">
                        <mxRectangle width="100" height="20" as="alternateBounds"/>
                    </mxGeometry>
                </mxCell>
                <mxCell id="166" value="" style="shape=tableRow;horizontal=0;startSize=0;swimlaneHead=0;swimlaneBody=0;strokeColor=inherit;top=0;left=0;bottom=0;right=0;collapsible=0;dropTarget=0;fillColor=none;points=[[0,0.5],[1,0.5]];portConstraint=eastwest;fontSize=16;" parent="163" vertex="1">
                    <mxGeometry y="20" width="100" height="20" as="geometry"/>
                </mxCell>
                <mxCell id="167" value="Manutenibilidade" style="shape=partialRectangle;html=1;whiteSpace=wrap;connectable=0;strokeColor=inherit;overflow=hidden;fillColor=none;top=0;left=0;bottom=0;right=0;pointerEvents=1;fontSize=12;align=left;spacingLeft=5;" parent="166" vertex="1">
                    <mxGeometry width="100" height="20" as="geometry">
                        <mxRectangle width="100" height="20" as="alternateBounds"/>
                    </mxGeometry>
                </mxCell>
                <mxCell id="168" value="" style="shape=tableRow;horizontal=0;startSize=0;swimlaneHead=0;swimlaneBody=0;strokeColor=inherit;top=0;left=0;bottom=0;right=0;collapsible=0;dropTarget=0;fillColor=none;points=[[0,0.5],[1,0.5]];portConstraint=eastwest;fontSize=16;" parent="163" vertex="1">
                    <mxGeometry y="40" width="100" height="15" as="geometry"/>
                </mxCell>
                <mxCell id="169" value="Acessibilidade" style="shape=partialRectangle;html=1;whiteSpace=wrap;connectable=0;strokeColor=inherit;overflow=hidden;fillColor=none;top=0;left=0;bottom=0;right=0;pointerEvents=1;fontSize=12;align=left;spacingLeft=5;" parent="168" vertex="1">
                    <mxGeometry width="100" height="15" as="geometry">
                        <mxRectangle width="100" height="15" as="alternateBounds"/>
                    </mxGeometry>
                </mxCell>
                <mxCell id="170" style="shape=tableRow;horizontal=0;startSize=0;swimlaneHead=0;swimlaneBody=0;strokeColor=inherit;top=0;left=0;bottom=0;right=0;collapsible=0;dropTarget=0;fillColor=none;points=[[0,0.5],[1,0.5]];portConstraint=eastwest;fontSize=16;" parent="163" vertex="1">
                    <mxGeometry y="55" width="100" height="15" as="geometry"/>
                </mxCell>
                <mxCell id="171" value="" style="shape=partialRectangle;html=1;whiteSpace=wrap;connectable=0;strokeColor=inherit;overflow=hidden;fillColor=none;top=0;left=0;bottom=0;right=0;pointerEvents=1;fontSize=12;align=left;spacingLeft=5;" parent="170" vertex="1">
                    <mxGeometry width="100" height="15" as="geometry">
                        <mxRectangle width="100" height="15" as="alternateBounds"/>
                    </mxGeometry>
                </mxCell>
                <mxCell id="154" value="" style="shape=table;startSize=0;container=1;collapsible=0;childLayout=tableLayout;fontSize=11;fillColor=none;strokeColor=none;" parent="1" vertex="1">
                    <mxGeometry x="1330" y="80" width="100" height="80" as="geometry"/>
                </mxCell>
                <mxCell id="155" value="" style="shape=tableRow;horizontal=0;startSize=0;swimlaneHead=0;swimlaneBody=0;strokeColor=inherit;top=0;left=0;bottom=0;right=0;collapsible=0;dropTarget=0;fillColor=none;points=[[0,0.5],[1,0.5]];portConstraint=eastwest;fontSize=16;" parent="154" vertex="1">
                    <mxGeometry width="100" height="20" as="geometry"/>
                </mxCell>
                <mxCell id="156" value="Segurança" style="shape=partialRectangle;html=1;whiteSpace=wrap;connectable=0;strokeColor=inherit;overflow=hidden;fillColor=none;top=0;left=0;bottom=0;right=0;pointerEvents=1;fontSize=12;align=left;spacingLeft=5;" parent="155" vertex="1">
                    <mxGeometry width="100" height="20" as="geometry">
                        <mxRectangle width="100" height="20" as="alternateBounds"/>
                    </mxGeometry>
                </mxCell>
                <mxCell id="157" value="" style="shape=tableRow;horizontal=0;startSize=0;swimlaneHead=0;swimlaneBody=0;strokeColor=inherit;top=0;left=0;bottom=0;right=0;collapsible=0;dropTarget=0;fillColor=none;points=[[0,0.5],[1,0.5]];portConstraint=eastwest;fontSize=16;" parent="154" vertex="1">
                    <mxGeometry y="20" width="100" height="20" as="geometry"/>
                </mxCell>
                <mxCell id="158" value="Desempenho" style="shape=partialRectangle;html=1;whiteSpace=wrap;connectable=0;strokeColor=inherit;overflow=hidden;fillColor=none;top=0;left=0;bottom=0;right=0;pointerEvents=1;fontSize=12;align=left;spacingLeft=5;" parent="157" vertex="1">
                    <mxGeometry width="100" height="20" as="geometry">
                        <mxRectangle width="100" height="20" as="alternateBounds"/>
                    </mxGeometry>
                </mxCell>
                <mxCell id="159" value="" style="shape=tableRow;horizontal=0;startSize=0;swimlaneHead=0;swimlaneBody=0;strokeColor=inherit;top=0;left=0;bottom=0;right=0;collapsible=0;dropTarget=0;fillColor=none;points=[[0,0.5],[1,0.5]];portConstraint=eastwest;fontSize=16;" parent="154" vertex="1">
                    <mxGeometry y="40" width="100" height="20" as="geometry"/>
                </mxCell>
                <mxCell id="160" value="Usabilidade" style="shape=partialRectangle;html=1;whiteSpace=wrap;connectable=0;strokeColor=inherit;overflow=hidden;fillColor=none;top=0;left=0;bottom=0;right=0;pointerEvents=1;fontSize=12;align=left;spacingLeft=5;" parent="159" vertex="1">
                    <mxGeometry width="100" height="20" as="geometry">
                        <mxRectangle width="100" height="20" as="alternateBounds"/>
                    </mxGeometry>
                </mxCell>
                <mxCell id="161" style="shape=tableRow;horizontal=0;startSize=0;swimlaneHead=0;swimlaneBody=0;strokeColor=inherit;top=0;left=0;bottom=0;right=0;collapsible=0;dropTarget=0;fillColor=none;points=[[0,0.5],[1,0.5]];portConstraint=eastwest;fontSize=16;" parent="154" vertex="1">
                    <mxGeometry y="60" width="100" height="20" as="geometry"/>
                </mxCell>
                <mxCell id="162" value="Escalabilidade" style="shape=partialRectangle;html=1;whiteSpace=wrap;connectable=0;strokeColor=inherit;overflow=hidden;fillColor=none;top=0;left=0;bottom=0;right=0;pointerEvents=1;fontSize=12;align=left;spacingLeft=5;" parent="161" vertex="1">
                    <mxGeometry width="100" height="20" as="geometry">
                        <mxRectangle width="100" height="20" as="alternateBounds"/>
                    </mxGeometry>
                </mxCell>
                <mxCell id="172" value="" style="endArrow=open;endFill=1;endSize=12;html=1;exitX=1;exitY=0.5;exitDx=0;exitDy=0;" parent="1" source="155" edge="1">
                    <mxGeometry width="160" relative="1" as="geometry">
                        <mxPoint x="1250" y="130" as="sourcePoint"/>
                        <mxPoint x="1540" y="90" as="targetPoint"/>
                    </mxGeometry>
                </mxCell>
                <mxCell id="173" value="" style="endArrow=open;endFill=1;endSize=12;html=1;exitX=1;exitY=0.5;exitDx=0;exitDy=0;" parent="1" source="157" edge="1">
                    <mxGeometry width="160" relative="1" as="geometry">
                        <mxPoint x="1440" y="100" as="sourcePoint"/>
                        <mxPoint x="1540" y="110" as="targetPoint"/>
                    </mxGeometry>
                </mxCell>
                <mxCell id="174" value="" style="endArrow=open;endFill=1;endSize=12;html=1;exitX=1;exitY=0.5;exitDx=0;exitDy=0;" parent="1" source="159" edge="1">
                    <mxGeometry width="160" relative="1" as="geometry">
                        <mxPoint x="1440" y="100" as="sourcePoint"/>
                        <mxPoint x="1540" y="130" as="targetPoint"/>
                    </mxGeometry>
                </mxCell>
                <mxCell id="175" value="" style="endArrow=open;endFill=1;endSize=12;html=1;exitX=1;exitY=0.5;exitDx=0;exitDy=0;" parent="1" source="161" edge="1">
                    <mxGeometry width="160" relative="1" as="geometry">
                        <mxPoint x="1440" y="140" as="sourcePoint"/>
                        <mxPoint x="1540" y="150" as="targetPoint"/>
                    </mxGeometry>
                </mxCell>
                <mxCell id="176" value="" style="endArrow=open;endFill=1;endSize=12;html=1;exitX=1;exitY=0.5;exitDx=0;exitDy=0;" parent="1" source="164" edge="1">
                    <mxGeometry width="160" relative="1" as="geometry">
                        <mxPoint x="1450" y="150" as="sourcePoint"/>
                        <mxPoint x="1540" y="170" as="targetPoint"/>
                    </mxGeometry>
                </mxCell>
                <mxCell id="177" value="" style="endArrow=open;endFill=1;endSize=12;html=1;exitX=1;exitY=0.5;exitDx=0;exitDy=0;" parent="1" source="166" edge="1">
                    <mxGeometry width="160" relative="1" as="geometry">
                        <mxPoint x="1460" y="160" as="sourcePoint"/>
                        <mxPoint x="1540" y="190" as="targetPoint"/>
                    </mxGeometry>
                </mxCell>
                <mxCell id="178" value="" style="endArrow=open;endFill=1;endSize=12;html=1;" parent="1" edge="1">
                    <mxGeometry width="160" relative="1" as="geometry">
                        <mxPoint x="1430" y="208" as="sourcePoint"/>
                        <mxPoint x="1540" y="208" as="targetPoint"/>
                    </mxGeometry>
                </mxCell>
                <mxCell id="179" value="" style="shape=table;startSize=0;container=1;collapsible=0;childLayout=tableLayout;fontSize=11;fillColor=none;strokeColor=none;" parent="1" vertex="1">
                    <mxGeometry x="1540" y="80" width="500" height="80" as="geometry"/>
                </mxCell>
                <mxCell id="180" value="" style="shape=tableRow;horizontal=0;startSize=0;swimlaneHead=0;swimlaneBody=0;strokeColor=inherit;top=0;left=0;bottom=0;right=0;collapsible=0;dropTarget=0;fillColor=none;points=[[0,0.5],[1,0.5]];portConstraint=eastwest;fontSize=16;" parent="179" vertex="1">
                    <mxGeometry width="500" height="20" as="geometry"/>
                </mxCell>
                <mxCell id="181" value="Proteção de dados dos usuários (LGPD) e Controle de acesso por nível de permissão" style="shape=partialRectangle;html=1;whiteSpace=wrap;connectable=0;strokeColor=inherit;overflow=hidden;fillColor=none;top=0;left=0;bottom=0;right=0;pointerEvents=1;fontSize=12;align=left;spacingLeft=5;" parent="180" vertex="1">
                    <mxGeometry width="500" height="20" as="geometry">
                        <mxRectangle width="500" height="20" as="alternateBounds"/>
                    </mxGeometry>
                </mxCell>
                <mxCell id="182" value="" style="shape=tableRow;horizontal=0;startSize=0;swimlaneHead=0;swimlaneBody=0;strokeColor=inherit;top=0;left=0;bottom=0;right=0;collapsible=0;dropTarget=0;fillColor=none;points=[[0,0.5],[1,0.5]];portConstraint=eastwest;fontSize=16;" parent="179" vertex="1">
                    <mxGeometry y="20" width="500" height="20" as="geometry"/>
                </mxCell>
                <mxCell id="183" value="Tempo de resposta aceitável, mesmo em períodos de pico" style="shape=partialRectangle;html=1;whiteSpace=wrap;connectable=0;strokeColor=inherit;overflow=hidden;fillColor=none;top=0;left=0;bottom=0;right=0;pointerEvents=1;fontSize=12;align=left;spacingLeft=5;" parent="182" vertex="1">
                    <mxGeometry width="500" height="20" as="geometry">
                        <mxRectangle width="500" height="20" as="alternateBounds"/>
                    </mxGeometry>
                </mxCell>
                <mxCell id="184" value="" style="shape=tableRow;horizontal=0;startSize=0;swimlaneHead=0;swimlaneBody=0;strokeColor=inherit;top=0;left=0;bottom=0;right=0;collapsible=0;dropTarget=0;fillColor=none;points=[[0,0.5],[1,0.5]];portConstraint=eastwest;fontSize=16;" parent="179" vertex="1">
                    <mxGeometry y="40" width="500" height="20" as="geometry"/>
                </mxCell>
                <mxCell id="185" value="Interface simples e intuitiva para usuários com diferentes perfis" style="shape=partialRectangle;html=1;whiteSpace=wrap;connectable=0;strokeColor=inherit;overflow=hidden;fillColor=none;top=0;left=0;bottom=0;right=0;pointerEvents=1;fontSize=12;align=left;spacingLeft=5;" parent="184" vertex="1">
                    <mxGeometry width="500" height="20" as="geometry">
                        <mxRectangle width="500" height="20" as="alternateBounds"/>
                    </mxGeometry>
                </mxCell>
                <mxCell id="186" style="shape=tableRow;horizontal=0;startSize=0;swimlaneHead=0;swimlaneBody=0;strokeColor=inherit;top=0;left=0;bottom=0;right=0;collapsible=0;dropTarget=0;fillColor=none;points=[[0,0.5],[1,0.5]];portConstraint=eastwest;fontSize=16;" parent="179" vertex="1">
                    <mxGeometry y="60" width="500" height="20" as="geometry"/>
                </mxCell>
                <mxCell id="187" value="Capacidade de suportar aumento de usuários e funcionalidades" style="shape=partialRectangle;html=1;whiteSpace=wrap;connectable=0;strokeColor=inherit;overflow=hidden;fillColor=none;top=0;left=0;bottom=0;right=0;pointerEvents=1;fontSize=12;align=left;spacingLeft=5;" parent="186" vertex="1">
                    <mxGeometry width="500" height="20" as="geometry">
                        <mxRectangle width="500" height="20" as="alternateBounds"/>
                    </mxGeometry>
                </mxCell>
                <mxCell id="188" value="" style="shape=table;startSize=0;container=1;collapsible=0;childLayout=tableLayout;fontSize=11;fillColor=none;strokeColor=none;" parent="1" vertex="1">
                    <mxGeometry x="1540" y="160" width="500" height="75" as="geometry"/>
                </mxCell>
                <mxCell id="189" value="" style="shape=tableRow;horizontal=0;startSize=0;swimlaneHead=0;swimlaneBody=0;strokeColor=inherit;top=0;left=0;bottom=0;right=0;collapsible=0;dropTarget=0;fillColor=none;points=[[0,0.5],[1,0.5]];portConstraint=eastwest;fontSize=16;" parent="188" vertex="1">
                    <mxGeometry width="500" height="20" as="geometry"/>
                </mxCell>
                <mxCell id="190" value="Sistema online com alta taixa de uptime (99,99%) e com redundância" style="shape=partialRectangle;html=1;whiteSpace=wrap;connectable=0;strokeColor=inherit;overflow=hidden;fillColor=none;top=0;left=0;bottom=0;right=0;pointerEvents=1;fontSize=12;align=left;spacingLeft=5;" parent="189" vertex="1">
                    <mxGeometry width="500" height="20" as="geometry">
                        <mxRectangle width="500" height="20" as="alternateBounds"/>
                    </mxGeometry>
                </mxCell>
                <mxCell id="191" value="" style="shape=tableRow;horizontal=0;startSize=0;swimlaneHead=0;swimlaneBody=0;strokeColor=inherit;top=0;left=0;bottom=0;right=0;collapsible=0;dropTarget=0;fillColor=none;points=[[0,0.5],[1,0.5]];portConstraint=eastwest;fontSize=16;" parent="188" vertex="1">
                    <mxGeometry y="20" width="500" height="20" as="geometry"/>
                </mxCell>
                <mxCell id="192" value="Código limpo e estilizado" style="shape=partialRectangle;html=1;whiteSpace=wrap;connectable=0;strokeColor=inherit;overflow=hidden;fillColor=none;top=0;left=0;bottom=0;right=0;pointerEvents=1;fontSize=12;align=left;spacingLeft=5;" parent="191" vertex="1">
                    <mxGeometry width="500" height="20" as="geometry">
                        <mxRectangle width="500" height="20" as="alternateBounds"/>
                    </mxGeometry>
                </mxCell>
                <mxCell id="193" value="" style="shape=tableRow;horizontal=0;startSize=0;swimlaneHead=0;swimlaneBody=0;strokeColor=inherit;top=0;left=0;bottom=0;right=0;collapsible=0;dropTarget=0;fillColor=none;points=[[0,0.5],[1,0.5]];portConstraint=eastwest;fontSize=16;" parent="188" vertex="1">
                    <mxGeometry y="40" width="500" height="20" as="geometry"/>
                </mxCell>
                <mxCell id="194" value="Caso haja usuários com necessidades especiais" style="shape=partialRectangle;html=1;whiteSpace=wrap;connectable=0;strokeColor=inherit;overflow=hidden;fillColor=none;top=0;left=0;bottom=0;right=0;pointerEvents=1;fontSize=12;align=left;spacingLeft=5;" parent="193" vertex="1">
                    <mxGeometry width="500" height="20" as="geometry">
                        <mxRectangle width="500" height="20" as="alternateBounds"/>
                    </mxGeometry>
                </mxCell>
                <mxCell id="195" style="shape=tableRow;horizontal=0;startSize=0;swimlaneHead=0;swimlaneBody=0;strokeColor=inherit;top=0;left=0;bottom=0;right=0;collapsible=0;dropTarget=0;fillColor=none;points=[[0,0.5],[1,0.5]];portConstraint=eastwest;fontSize=16;" parent="188" vertex="1">
                    <mxGeometry y="60" width="500" height="15" as="geometry"/>
                </mxCell>
                <mxCell id="196" value="" style="shape=partialRectangle;html=1;whiteSpace=wrap;connectable=0;strokeColor=inherit;overflow=hidden;fillColor=none;top=0;left=0;bottom=0;right=0;pointerEvents=1;fontSize=12;align=left;spacingLeft=5;" parent="195" vertex="1">
                    <mxGeometry width="500" height="15" as="geometry">
                        <mxRectangle width="500" height="15" as="alternateBounds"/>
                    </mxGeometry>
                </mxCell>
            </root>
        </mxGraphModel>
    </diagram>
</mxfile>